<?xml version="1.0" encoding="utf-8"?>
<!-- Generator: Adobe Illustrator 26.1.0, SVG Export Plug-In . SVG Version: 6.00 Build 0)  -->
<svg version="1.1" id="Layer_1" xmlns="http://www.w3.org/2000/svg" xmlns:xlink="http://www.w3.org/1999/xlink" x="0px" y="0px"
	 viewBox="0 0 96.6 96.5" style="enable-background:new 0 0 96.6 96.5;" xml:space="preserve">
<style type="text/css">
	.st0{fill:none;}
	.st1{fill:#BEDDE5;}
	.st2{fill:#DBA18F;}
	.st3{fill:#E0A579;}
	.st4{fill:#EAB081;}
	.st5{fill:#F0B784;}
	.st6{fill:#FFC28E;}
	.st7{fill:#393B42;}
	.st8{fill:#FFFFFF;}
	.st9{fill:#2C5263;}
	.st10{fill:#CAD9E0;}
	.st11{fill:#21414F;}
	.st12{fill:#E4F4FF;}
	.st13{fill:#25485B;}
	.st14{fill:#373434;}
</style>
<g>
	<path class="st0" d="M96.6,48.3c0,1.4-0.1,2.8-0.2,4.2c-0.1,1.2-0.2,2.4-0.4,3.6c-0.8,5-2.4,9.7-4.6,14c-1.2,2.4-2.6,4.7-4.2,6.8
		c-0.3,0.4-0.5,0.7-0.8,1.1c-0.2,0.3-0.4,0.6-0.7,0.8c-3,3.7-6.6,6.9-10.5,9.6l0,0c-0.2,0.2-0.5,0.3-0.8,0.5
		C72.7,90,71,91,69.2,91.8c-2.6,1.2-5.2,2.2-8,3c-2.2,0.6-4.4,1.1-6.6,1.3c-0.2,0-0.4,0.1-0.5,0.1c-1.6,0.2-3.3,0.3-4.9,0.3
		c-0.2,0-0.5,0-0.7,0l0,0c-0.2,0-0.5,0-0.7,0c-14.8-0.2-28-7.1-36.7-17.7c-0.2-0.3-0.4-0.6-0.7-0.8C3.8,69.8,0,59.5,0,48.3
		C0,21.6,21.6,0,48.3,0s46.8,20.1,48.2,45.5C96.5,46.4,96.5,47.4,96.6,48.3z"/>
	<path class="st1" d="M96.6,48.3c0,1.4-0.1,2.8-0.2,4.2c-0.1,1.2-0.2,2.4-0.4,3.6c-0.8,5-2.4,9.7-4.6,14c-1.2,2.4-2.6,4.7-4.2,6.8
		c-0.3,0.4-0.5,0.7-0.8,1.1c-0.2,0.3-0.4,0.6-0.7,0.8c-3,3.7-6.6,6.9-10.5,9.6l0,0c-0.2,0.2-0.5,0.3-0.8,0.5
		C72.7,90,71,91,69.2,91.8c-2.6,1.2-5.2,2.2-8,3c-2.2,0.6-4.4,1.1-6.6,1.3c-0.2,0-0.4,0.1-0.5,0.1c-1.6,0.2-3.3,0.3-4.9,0.3
		c-0.2,0-0.5,0-0.7,0l0,0c-0.2,0-0.5,0-0.7,0c-14.8-0.2-28-7.1-36.7-17.7c-0.2-0.3-0.4-0.6-0.7-0.8C3.8,69.8,0,59.5,0,48.3
		C0,21.6,21.6,0,48.3,0s46.8,20.1,48.2,45.5C96.5,46.4,96.5,47.4,96.6,48.3z"/>
	<g>
		<g>
			<g>
				<path class="st2" d="M56.7,44.8L56.7,44.8L56.7,44.8L56.7,44.8z"/>
				<path class="st2" d="M56,45.4c0.2-0.2,0.4-0.4,0.7-0.6l-1.1,1.1C55.7,45.8,55.8,45.6,56,45.4z"/>
				<path class="st3" d="M58.8,50.3c-0.4-1.2-0.6-2.4-0.6-3.6v-3.1c-0.5,0.4-1.1,0.7-1.6,1.2l0,0l-1.1,1.1c-0.6,0.6-1.1,1.2-1.7,1.7
					l0,0c-0.5,0.5-1.1,0.9-1.7,1.2c-1,0.5-2.3,0.5-3.6,0.5V53l0,0l-0.1,6.7h0.1c4.6-0.1,8.7-2.4,11.3-5.8l0.1-0.2
					C59.9,53.7,59.3,51.8,58.8,50.3z"/>
				<path class="st4" d="M48.4,53v-3.7l0,0c-0.2,0-0.3,0-0.5,0s-0.3,0-0.5,0s-0.4,0-0.6,0c-0.1,0-0.3,0-0.4,0
					c-0.2,0-0.4-0.1-0.6-0.1c-0.1,0-0.2,0-0.3,0c-0.3-0.1-0.6-0.2-0.8-0.3c-1.6-0.8-2.7-2.1-3.9-3.4c-0.8-0.9-1.9-1.5-2.9-2.2
					l-0.1,4.3c0,0.6-0.1,1.3-0.3,1.9c-0.4,1.5-1.2,4.4-1.1,4.4l0,0c1.5,2.1,3.5,3.7,5.9,4.8l0,0c1.4,0.6,2.9,1,4.5,1.1l0,0
					c0.4,0,0.7,0,1.1,0h0.3L48.4,53L48.4,53L48.4,53z"/>
			</g>
			<g>
				<g>
					<path class="st5" d="M35.9,42.6c0.1,0.8,0.5,1.5,1.1,2.1l5.2,4.7c-1.2-5.2-4-9.4-7.2-13.9L35.9,42.6z"/>
					<path class="st6" d="M61,37.6l0.9-7.2c0-2.9,0.1-5.7,0-8.6c-0.1-1.7-0.6-2.7-2.2-3.6c-1.9-1.1-3.4-0.6-5.1,0
						c-0.6,0.2-1.2,0.4-1.8,0.5c-1.8,0.4-3.9,0.7-5.6-0.1c-2.9-1.3-5.7-3.4-9.1-3.2c-0.6,0-1.2,0.1-1.8,0.4
						c-1.1,0.6-1.7,1.7-2.1,2.8c-0.8,2.8,0.4,5.1,0.1,8c0,1.3,0,2.6,0.1,3.9l0.6,4.8c3.2,4.4,6,8.7,7.2,13.9l1.2,1.1
						c0.6,0.5,1.3,0.8,2.1,0.8h2.6h2.7c0.8,0,1.5-0.3,2.1-0.8l1.8-1.7C54.8,44,56.5,39.3,61,37.6L61,37.6z"/>
					<path class="st5" d="M61,37.6c-4.5,1.7-6.1,6.4-6.2,11.1l4.9-4.5c0.4-0.3,0.6-0.8,0.7-1.3L61,37.6L61,37.6z"/>
					<path class="st6" d="M36,30.6c-0.2-1.3-0.3-2.3-0.4-2.6c-0.1-0.3-0.2-0.6-0.5-0.7c-0.2,0-0.3,0.2-0.5,0.1
						c-1.1-0.6-1.8,0.1-2.1,1.1c-0.4,1.2-0.3,2,0.3,3.1c0.7,1.3,1.1,2.6,1.6,3.9c0.1,0.3,0.7,2.2,1.2,2.2H38
						C37.2,37.8,36.5,33.5,36,30.6L36,30.6z"/>
					<path class="st6" d="M60.2,30.4c0.1-0.9,0.3-1.8,0.8-2.8c0.2-0.5,0.8-1,1.3-0.8c0.7,0.3,1.2,1.2,1.5,1.8c0.4,1.1,0,1.6-0.4,2.6
						c-0.3,0.6-2.2,6.4-2.7,6.4h-2.4c0.5-1.6,1.3-3.2,1.6-4.8C60,32,60.1,31.2,60.2,30.4z"/>
					<path class="st7" d="M35.5,32.9c-0.2-2.2-0.4-4.4-0.8-6.6c-0.6-2.9,1-5.9,2.7-8.3c0.3-0.4,0.6-0.8,1.1-1c0.7-0.2,1.4,0.2,2,0.6
						c2,1.2,6.4,2.8,6.4,2.8s4.6,0.1,6.8-0.3c1.5-0.3,3.6-1.4,5.1-0.5c1.3,0.7,1.6,3,2.1,4.3L61,34.8l1.4-4.4
						c1.1-3.8,1.4-12.7,1.4-12.7s-6.2-6.3-9.8-5.6c1.3-0.2,3.6,0.1,4.9-0.1C54,10.5,50,9.1,46,9.8s-7.7,2.4-10.9,4.8
						c-1.4,1.1-3.5,3.7-3.5,3.7S31.8,27.7,35.5,32.9z"/>
				</g>
				<path class="st8" d="M42.4,41.9c1.6,0.4,3.9,0.8,6.6,0.7c2.1-0.1,3.8-0.5,5.1-1c-0.4,0.9-0.8,1.7-1.3,2.6
					c-0.7,0.4-2.7,1.5-5.3,1.2c-1.3-0.2-2.4-0.6-3-1C43.9,43.6,43.2,42.7,42.4,41.9z"/>
				<path class="st3" d="M46,38l1.4,1.5c0.3,0.1,1.4,0.6,2.8,0.1c1.6-0.5,2.2-1.9,2.3-2.1l-1.4,3.8c-2.3-0.2-2.1-0.1-4.4-0.3L46,38
					L46,38z"/>
			</g>
		</g>
		<g>
			<path class="st9" d="M48.3,86.9v9.6h-0.7c-1,0-1.9,0-2.9-0.1c-13.6-1-25.7-7.6-33.8-17.6c-0.2-0.3-0.5-0.6-0.7-0.8
				c-1.4-1.8-2.7-3.8-3.9-5.8c1-4.5,1.8-7.9,1.8-7.9s16.6-6.8,24.6-10.1c1.4-0.6,2.5-1,3.2-1.3l0,0c0.2-0.1,0.4-0.2,0.5-0.2l0,0
				c0.1,0,0.2-0.1,0.2-0.1l0,0c0.1,0,0.1,0,0.2-0.1c0.2-0.1,0.4-0.1,0.4-0.1l0.8,3.3l0,0l1.3,5.4v0.2l0,0l0.8,3.3l0,0l0.4,1.8l0,0
				l0.1,0.3c0,0,1.5,4,3.2,8.5l0,0c0.8,2,1.5,4.1,2.3,6.1c0.7,2,1.4,3.8,1.9,5.1L48.3,86.9L48.3,86.9z"/>
			<path class="st10" d="M48.3,57.1c-2.2,0.1-5,4.4-6.5,5.7c-2.5,2.3-3.7,4.8-4.5,7.7c1.4,1.7,2.7,3.5,3.9,5.7
				c1.3,2.5,2.2,5.1,3,7.8c0.4,1.4,0.8,3.5,2.5,3.7c0.6,0.1,1.1-0.2,1.6-0.5V57.1L48.3,57.1z"/>
			<path class="st10" d="M48.3,57.1c2.2,0.1,5,4.4,6.5,5.7c2.5,2.3,3.7,4.8,4.5,7.7c-1.4,1.7-2.7,3.5-3.9,5.7
				c-1.3,2.5-2.2,5.1-3,7.8c-0.4,1.4-0.8,3.5-2.5,3.7c-0.6,0.1-1.1-0.2-1.6-0.5V57.1L48.3,57.1z"/>
			<path class="st11" d="M50.4,64.5l2.2-3.4c0-0.1-2.3-3.6-4.1-4.6c-0.3,0.1-0.6,0.2-0.9,0.2c-0.2,0-0.4-0.1-0.5-0.2
				c-0.1,0.1-0.2,0.2-0.2,0.4c-0.2,0.5-2.5,3.2-3.1,3.8c-0.1,0.1,0.2,0.8,0.3,1l1.5,2.8c0.3,0.5,0.4,1.1,0.2,1.7L43.1,79
				c1.2,0.6,2.6,16.8,3.9,17.1c3,0.7,4.7-16.3,5.6-18.8l-2.4-11.1C50,65.6,50.1,65,50.4,64.5L50.4,64.5z"/>
			<path class="st12" d="M48.2,56.6c-0.1,0-10.2-9.2-10.2-9.2l-2.7,7.2L38.7,69L48.2,56.6L48.2,56.6z"/>
			<path class="st12" d="M48.3,56.6c0.1,0,10.1-9.3,10.1-9.3l2.7,7.2l-3.4,14.4L48.3,56.6L48.3,56.6z"/>
			<path class="st13" d="M48.3,87v9.6h-0.7c-1,0-1.9,0-2.9-0.1c-1.2-3.5-2.5-7.3-3.6-10.2c-3.3-9.1-7.8-16-11.4-20.7
				c1.9-0.9,3.7-1.8,5.6-2.7l-6.1-2.6c0.4-1,0.4-3.5,2.1-4.9c0.6-0.5,1-0.9,1.5-1.3c1.8-1.5,2.8-2.3,3.5-2.5l0.1,0.3l0,0l0.2,0.6
				l0.1,0.3l0,0l0.6,1.7l0,0l2.2,6.3l0.1,0.2l0,0l1,3l0.6,1.6l0,0l3,8.7l0,0l4,11.8L48.3,87L48.3,87L48.3,87z"/>
			<path class="st13" d="M90.2,72.2c-0.9,1.6-1.9,3.2-3,4.7c-0.3,0.4-0.5,0.7-0.8,1.1c-0.2,0.3-0.4,0.6-0.7,0.8
				c-3,3.7-6.6,7-10.5,9.6l0,0c-0.2,0.2-0.5,0.3-0.8,0.5C72.7,90,71,91,69.2,91.8c-2.5,1.2-5.2,2.2-8,3c-2.2,0.6-4.4,1-6.6,1.3
				c-0.2,0-0.4,0-0.5,0.1c-0.7,0.1-1.4,0.2-2.1,0.2c-0.9,0.1-1.9,0.1-2.8,0.1h-0.7v-9.6l0,0l0,0c0.1-0.2,0.2-0.4,0.2-0.6l0.1-0.2
				l0.1-0.2c0.9-2.5,2.3-6.3,3.7-9.9l0,0c1.8-4.9,3.5-9.3,3.5-9.3l0,0l0,0l0.6-1.9l0,0l3.9-11.9l0,0l0.2-0.6l1.8,0.8h0.1l0,0
				l26,11.2C88.4,64.2,89.2,67.7,90.2,72.2z"/>
			<path class="st9" d="M61.2,62.8c1.9,0.9,3.7,1.8,5.6,2.7c-3.6,4.6-8.1,11.5-11.4,20.7c-1.1,2.9-2.4,6.6-3.6,10.2
				c-0.9,0.1-1.9,0.1-2.8,0.1h-0.7V87l0,0l0.2-0.7l0.1-0.2l0,0l0.1-0.2l3.5-10.6l0,0l3.1-9.4l0,0l0.6-1.8l3-9.2l0,0l0.6-1.9l0,0
				l0.4-1.1l0,0l0.1-0.1c0.5,0.2,1.2,0.6,2.3,1.4c0,0,0,0,0.1,0l0,0c0.8,0.6,1.8,1.4,2.9,2.3c1.6,1.4,1.7,3.9,2.1,4.9L61.2,62.8
				L61.2,62.8z"/>
		</g>
		<path class="st14" d="M64.2,28.9l-0.4-1.1c0,0-0.1,0-0.4,0c-0.1,0-0.2,0-0.3,0c-0.3,0-0.7,0-1.2,0c-0.3,0-0.6,0-0.9,0h-0.1
			c-0.5,0-1,0-1.5,0l0,0c-1.1,0-2.2,0-3,0.1c-0.9,0-2,0.2-2.9,0.4c-0.6,0.2-0.6,0.2,0,0l0,0c-1.4,0.4-2.7,1-3.3,1.8V30
			c-0.7,0.4-1.2,0.5-1.7,0.5s-1-0.1-1.7-0.4v0.1c-1.2-1.4-4.1-1.9-6.4-1.8c-1.1,0-2.8,0.2-4.4,0.4c-0.2,0-0.5,0.1-0.7,0.1
			S34.8,29,34.6,29s-0.5,0.1-0.7,0.1c-0.6,0.1-1.1,0.1-1.4,0.2c-0.2,0-0.3,0-0.3,0l-0.3,1.5l1,0.5l0,0l1.4,0.7c0,0.2,0,0.4,0,0.6
			c0.1,0.9,0.4,1.6,0.9,2.2l0,0l0,0c0.6,0.8,1.4,1.3,2.3,1.7c1,0.4,2.1,0.6,3.2,0.6c0.1,0,0.2,0,0.2,0c0.6,0,1.1-0.1,1.6-0.3
			c2.2-0.6,3.9-2.2,4.7-4.3c0.1-0.3,0.2-0.6,0.2-0.9c0.4,0.1,0.8,0.1,1.2,0.1s0.7-0.1,1.2-0.2c0,0.3,0.1,0.6,0.2,0.9
			c0.9,2.1,2.7,3.5,5,4c0.5,0.1,1.1,0.2,1.6,0.2h0.2c0.7,0,1.4-0.1,2.1-0.3c1-0.3,1.9-0.8,2.6-1.4c0.9-0.8,1.4-1.8,1.5-3.1
			c0-0.2,0-0.4,0-0.6l1.2-1.9L64.2,28.9L64.2,28.9z M45.8,32.2c-0.7,1.7-2.1,3-3.9,3.6C41.5,35.9,41,36,40.6,36h-0.2
			c-1.3,0-2.6-0.3-3.6-1c-0.8-0.5-1.3-1.3-1.5-2.3v-0.1c0-0.3,0-0.5,0.1-0.8c0.1-0.2,0.2-0.5,0.4-0.7c0.1-0.1,0.2-0.2,0.3-0.3
			c0.9-0.7,2.4-1.1,4.1-1.2c2.5-0.1,4.8,0.6,5.5,1.5C45.9,31.5,46,31.8,45.8,32.2L45.8,32.2z M59.3,34.8L59.3,34.8
			c-0.8,0.4-1.8,0.7-2.7,0.7h-0.2c-0.5,0-0.9,0-1.3-0.1c-1.8-0.4-3.3-1.6-4.1-3.3c-0.2-0.4-0.1-0.7,0.1-1c0.7-1,2.9-1.8,5.4-1.9
			c1.6,0,2.9,0.2,3.9,0.7c0.2,0.1,0.5,0.3,0.6,0.4l0.1,0.1c0.3,0.4,0.5,0.8,0.4,1.3c0,0.5-0.2,1-0.4,1.5
			C60.7,33.8,60,34.4,59.3,34.8L59.3,34.8z"/>
	</g>
</g>
</svg>
