<?xml version="1.0" encoding="utf-8"?>
<!-- Generator: Adobe Illustrator 26.1.0, SVG Export Plug-In . SVG Version: 6.00 Build 0)  -->
<svg version="1.1" id="Layer_1" xmlns="http://www.w3.org/2000/svg" xmlns:xlink="http://www.w3.org/1999/xlink" x="0px" y="0px"
	 viewBox="0 0 96.6 96.6" style="enable-background:new 0 0 96.6 96.6;" xml:space="preserve">
<style type="text/css">
	.st0{fill:#BEDDE5;}
	.st1{fill:#020202;}
	.st2{fill:#2B2924;}
	.st3{fill:#6D6160;}
	.st4{fill:#DEB09D;}
	.st5{fill:#DBAF97;}
	.st6{fill:#E2BBA1;}
	.st7{fill:#231F20;}
	.st8{fill:#E6E7E8;}
	.st9{fill:#28262B;}
	.st10{fill:#312F35;}
	.st11{fill:#808082;}
	.st12{fill:#FFFFFF;}
	.st13{fill:#3B393F;}
	.st14{fill:#DDAD28;}
</style>
<g id="a">
</g>
<g id="b">
	<g id="c">
		<g id="d">
			<path class="st0" d="M96.6,48.3c0,1.8-0.1,3.5-0.3,5.2c0,0.3-0.1,0.6-0.1,0.9c-1.1,9-4.8,17.2-10.2,24
				C81.3,84.2,75.4,89,68.5,92.1c-0.3,0.2-0.6,0.3-0.9,0.4c-0.1,0.1-0.2,0.1-0.3,0.1c-2.2,1-4.6,1.8-7,2.4c-1.5,0.4-3,0.7-4.5,0.9
				c-1.5,0.2-3.1,0.4-4.7,0.5c-0.2,0-0.4,0-0.5,0s-0.1,0-0.2,0l0,0c-0.2,0-0.5,0-0.7,0c-0.4,0-0.8,0-1.3,0c-0.2,0-0.5,0-0.7,0
				c-0.3,0-0.7,0-1,0c-0.9,0-1.8-0.1-2.6-0.2c-1-0.1-2-0.2-3-0.3c-0.1,0-0.2,0-0.2,0c-0.3-0.1-0.7-0.1-1-0.2
				c-3.3-0.6-6.5-1.5-9.5-2.7c-0.2-0.1-0.3-0.1-0.5-0.2c-0.1,0-0.1,0-0.2-0.1c-0.4-0.2-0.7-0.3-1.1-0.5c0,0,0,0-0.1,0
				c-0.7-0.3-1.3-0.6-2-0.9c-5.8-2.9-10.9-7-15-11.9C4.3,71,0,60.2,0,48.3C0,21.6,21.6,0,48.3,0s47.2,20.6,48.2,46.4
				c0,0.2,0,0.5,0,0.7C96.5,47.5,96.5,47.9,96.6,48.3z"/>
			<g id="e">
				<path class="st1" d="M65.4,30.4l-0.4-1c0,0-1.9,0-3.9,0c-1.1,0-2.2,0-3.1,0.1c-1.4,0-3,0.4-4.3,0.9c-0.7,0.3-1.3,0.7-1.7,1.2
					l0,0c-0.6,0.3-1.2,0.5-1.6,0.5c-0.3,0-0.6,0-0.9-0.1c-0.2,0-0.5-0.1-0.8-0.3v0.1c-0.1-0.1-0.3-0.3-0.5-0.4
					c-0.8-0.6-2.1-1-3.3-1.2c-0.8-0.1-1.6-0.1-2.3-0.1c-0.1,0-0.3,0-0.5,0l0,0c-1.2,0.1-2.8,0.2-4.2,0.4l0,0
					c-1.7,0.2-3.1,0.4-3.1,0.4l-0.3,1.4l2.3,1.2c0,0.2,0,0.4,0,0.6c0,0.1,0,0.2,0.1,0.3c0.5,2.7,3.4,4,6.1,4c0.1,0,0.2,0,0.2,0
					c0.5,0,1-0.1,1.5-0.3c2.1-0.6,3.7-2.1,4.5-4.1c0.1-0.3,0.2-0.6,0.1-0.8c0.1,0,0.1,0,0.2,0c0.3,0.1,0.6,0.1,0.9,0.1
					c0.1,0,0.2,0,0.3,0c0.2,0,0.5-0.1,0.8-0.2c0.2-0.1,0.2-0.1,0,0c0,0.3,0.1,0.5,0.2,0.8c0.7,1.5,1.8,2.7,3.3,3.3l0,0
					c0.5,0.2,0.9,0.4,1.4,0.5c0,0,0.1,0,0.2,0c0.5,0.1,0.9,0.1,1.4,0.1c0.1,0,0.2,0,0.2,0c1.2,0,2.4-0.4,3.4-0.9
					c1.4-0.8,2.3-2,2.4-3.7c0-0.2,0-0.4,0-0.6L65.4,30.4L65.4,30.4z M38.1,32.9c0.1-0.1,0.2-0.2,0.2-0.3c0.7-0.8,2.3-1.3,4.2-1.4
					c0.2,0,0.3,0,0.5,0c0.1,0,0.1,0,0,0c1.6,0,3.1,0.4,4,0.9l0,0c0.3,0.2,0.5,0.3,0.7,0.6s0.3,0.6,0.1,1c-0.4,1-1.1,1.9-1.9,2.5l0,0
					c-0.5,0.4-1.1,0.7-1.7,0.8c-0.4,0.1-0.8,0.2-1.3,0.2h-0.2c-1.5,0.1-3.2-0.4-4.1-1.5c-0.4-0.5-0.7-1-0.8-1.8c0-0.1,0-0.1,0-0.2
					C37.9,33.4,38,33.1,38.1,32.9L38.1,32.9z M61.7,35.4c-0.3,0.3-0.6,0.5-1,0.7s-0.9,0.4-1.4,0.5c-0.4,0.1-0.8,0.1-1.2,0.1H58
					c-0.4,0-0.9,0-1.3-0.1c-1.7-0.4-3.2-1.5-3.9-3.2c-0.2-0.3-0.1-0.7,0.1-1c0.6-0.8,2.3-1.5,4.2-1.7l0,0c0.3,0,0.6,0,0.9-0.1
					c1.3,0,2.5,0.1,3.4,0.5l0,0c0.4,0.1,0.6,0.3,0.9,0.5c0.1,0.1,0.2,0.2,0.3,0.3c0.2,0.3,0.3,0.7,0.3,1.1
					C62.8,34,62.4,34.8,61.7,35.4L61.7,35.4z"/>
				<g id="f">
					<g>
						<g>
							<path class="st2" d="M60.5,16.6c-0.2-0.2-0.5-0.5-0.7-0.7C60,16.2,60.3,16.4,60.5,16.6z"/>
							<path class="st3" d="M31.8,30c0-1.1,0.1-2.3,0.2-3.4c1.3-9.2,9.3-17.2,19-15.7c10.4,1.6,15.6,9.3,16.6,19.6
								c0.3,3.5-0.3,6.5,0.8,9.9c1.1,3.7,2.3,7.3,3.3,11c1.6,5.9,3.2,11.8,4,17.8c0.5,3.6,0.3,8.2-3,9.8c-1.4,0.7-3.1,0.6-4.6,0.6
								c-10.6-0.5-21.2-1.2-31.8-1.5c-3.1-0.1-7.5,1.2-10.3,0c-10.8-4.4-0.3-18.8,1.9-25c1.6-4.4,2.8-8.9,3.5-13.5
								C32,36.1,31.8,33.1,31.8,30L31.8,30z"/>
						</g>
						<g>
							<path class="st4" d="M39.5,54.4c0.8-2.7,1.1-5.5,1.1-8.3s-0.2-3.2,3-3.3c2.9,0,5.9,0.9,8.7,1.7c1,0.3,3.5,1.6,4.5,1.3
								c-0.1,0-0.1,8.5,0.1,9.4c1.1,4.8,3.4,8.7,1.8,13.7c-1,3.1-3.5,5.8-6.6,6.9s-6.8,0.7-9.4-1.2c-2.5-1.8-4-4.6-5.1-7.4
								c-2-4.9-1-5.9,1.1-10.2C38.8,56.1,39.2,55.3,39.5,54.4L39.5,54.4z"/>
							<path class="st5" d="M61.3,30.5c-0.3-1.7-1-3.3-1.5-5c-0.4-1.5-1.2-2.8-1.4-4.4c0.2,1.4-3.7,3.2-4.7,3.9
								c-1.2,0.8-2.5,1.3-3.9,2l0,0c0,0-0.1,0.1-0.3,0.2v23.4c0.1,0,0.2,0,0.3,0c1.8,0,3.5-0.7,5.4-2.3c0.2-0.1,0.3-0.3,0.5-0.4
								c2.3-2,4.3-4.3,5.3-7.2C62,37.4,62,33.7,61.3,30.5L61.3,30.5z"/>
							<path class="st6" d="M43.5,31.1c-2.5,1.4-5.5,2.4-7.7,4.1c0.3,1.5,0.9,3.9,2.3,4c0.4,0,0.7,0.5,0.7,1
								c0.5,3.2,2.7,5.5,5.2,7.7c0.2,0.1,0.3,0.3,0.5,0.4c1.7,1.5,3.4,2.2,5,2.3V27.2C48.6,27.8,45.4,30.1,43.5,31.1L43.5,31.1z"/>
						</g>
						<path class="st7" d="M62.7,31c0,0-0.5-0.2-1.4-0.5c-1.6-0.4-4.4-0.8-7.6-0.1c-0.9,0.2-1.8,0.5-2.7,0.9
							c-0.6,0.1-1.2,0.1-1.5,0.1l0,0c-0.3,0-0.7,0-1.2-0.1c-0.1,0-0.2,0-0.3,0c-1.2-0.5-2.3-0.8-3.3-1l0,0c-0.9-0.2-1.7-0.2-2.5-0.3
							l0,0c-1.7,0-3.2,0.2-4.2,0.4l0,0c-1,0.2-1.6,0.5-1.6,0.5c-0.4,0.4,0,1,0,1.1l0.3,0.1c0.3,0.1,0.7,0.3,0.8,0.6s0.1,0.7,0.1,1
							c0,0.1,0,0.2,0,0.3c0.1,0.5,0.2,0.9,0.3,1.3c0.2,0.7,0.7,1.4,1.4,1.8c1.4,0.8,4.4,0.7,5.9,0.4c1.6-0.5,3-3.5,3.2-4.4
							c0.1-0.6,0.8-0.7,1.2-0.7l0,0c0.4,0,1.1,0.1,1.2,0.7v0.1c0.2,1,1.6,3.8,3.2,4.3c0.7,0.2,1.7,0.3,2.8,0.3
							c1.2,0,2.4-0.2,3.1-0.6c0.4-0.2,0.8-0.6,1-1.1c0.2-0.2,0.3-0.5,0.4-0.8c0.2-0.5,0.3-1.1,0.4-1.6c0-0.3,0-0.7,0.1-1l0,0
							c0.2-0.2,0.5-0.4,0.8-0.5c0,0,0.1,0,0.2,0c0.1,0,0.1,0,0.2,0C62.7,32,63.1,31.4,62.7,31L62.7,31z M46,36.1
							c-0.8,0.8-2,1.3-3.7,1.2c-1.1-0.1-2.6-0.3-3.3-1.2c-0.1-0.1-0.2-0.3-0.3-0.4c-0.2-0.2-0.2-0.5-0.3-0.8
							c-0.1-0.4-0.2-0.8-0.3-1.3l0,0c0-0.2,0-0.5,0-0.7s0.1-0.5,0.2-0.7c0.1-0.3,0.2-0.5,0.5-0.7c0.9-0.7,2.4-0.8,3.5-0.8
							c0.5,0,1,0,1.5,0.1l0,0c1.5,0.1,2.8,0.4,3.4,1.2l0,0c0.2,0.2,0.3,0.5,0.3,0.8C47.4,33.5,47.1,35,46,36.1L46,36.1L46,36.1z
							 M60.5,34.9c-0.1,0.4-0.3,0.8-0.6,1.2c-0.2,0.2-0.3,0.3-0.6,0.5c-0.8,0.5-1.9,0.6-2.8,0.7c-0.6,0.1-1.1,0-1.6,0l0,0
							c-2.6-0.5-3.4-3.1-3.5-4.2c0-0.1,0-0.1,0-0.2c0.2-1.8,2.7-2.1,5.2-2.1c0.2,0,0.3,0,0.5,0l0,0c1,0,2.2,0.1,3,0.8
							c0.2,0.2,0.4,0.4,0.5,0.7C60.9,33,60.7,34.2,60.5,34.9L60.5,34.9z"/>
					</g>
					<g>
						<path class="st8" d="M40.3,67.8c1.8-2.4,4.6-5,7.7-5.8c3.1,0.8,5.8,3.4,7.7,5.8c0.3,0.3,0.3,0.8,0.2,1.2l-7.6,17.9
							c-0.1,0.1-0.1,0.2-0.2,0.3c-0.1-0.1-0.2-0.2-0.2-0.3L40.3,69C40,68.6,40,68.1,40.3,67.8z"/>
						<path class="st9" d="M67.5,92.5c-0.1,0.1-0.2,0.1-0.3,0.1c-2.2,1-4.6,1.8-7,2.4c-1.5,0.4-3,0.7-4.5,0.9
							c-1.5,0.2-3.1,0.4-4.7,0.5c-0.2,0-0.4,0-0.5,0s-0.1,0-0.2,0l0,0c-0.2,0-0.5,0-0.7,0c-0.4,0-0.8,0-1.3,0c-0.2,0-0.5,0-0.7,0
							v-12c0,0.2,0.1,0.3,0.1,0.5v-0.7c0.1,0.1,0.1,0.2,0.1,0.4c0-0.1,0.1-0.3,0.1-0.4V85c0.3-0.9,0.5-1.7,0.8-2.6l0.4-1.3
							c0-0.2,0.1-0.3,0.2-0.5c0.2-0.7,0.4-1.4,0.6-2.1c0-0.1,0.1-0.2,0.1-0.3c0.2-0.7,0.4-1.3,0.6-1.9c0.9-2.9,1.8-5.8,2.7-8.7
							c0-0.1,0.1-0.2,0.1-0.3c0.1-0.3,0.2-0.6,0.3-0.9c0.1-0.2,0.1-0.4,0.2-0.6c0.1-0.2,0.1-0.4,0.2-0.7c0.3-1,0.7-2.1,1-3.1
							c0.6-2,1.2-4.1,1.9-6.1c0.1-0.2,0.1-0.4,0.2-0.5c-0.1,0.2,0,0.4,0.1,0.6c0.2,0.3,0.5,0.7,1.1,1c2.5,1.5,8.1,2.8,9.6,3.2
							l-0.4,19.3C67.4,79.3,67.4,91.3,67.5,92.5z"/>
						<path class="st10" d="M47.6,84.4v12.1c-0.3,0-0.7,0-1,0c-0.9,0-1.8-0.1-2.6-0.2c-1-0.1-2-0.2-3-0.3c-0.1,0-0.2,0-0.2,0
							c-0.3-0.1-0.7-0.1-1-0.2c-3.3-0.6-6.5-1.5-9.5-2.7C30.1,93,30,93,29.8,92.9c-0.1,0-0.1,0-0.2-0.1c-0.4-0.2-0.7-0.3-1.1-0.5
							c0.2-2.2-0.8-11.3-1-14.1c-0.5-6.4-1.6-12.9-2.6-18.9c0.5-0.1,1.1-0.1,1.8-0.1c2.2,0,5.2,0.1,6.8-0.5c0.5-0.2,5.2-3.1,5.2-3.5
							c0.1,0.3,0.2,0.5,0.2,0.8c0.6,2,1.2,4,1.8,6c0.4,1.3,0.8,2.6,1.2,3.9V66c0,0.2,0.1,0.3,0.1,0.4l0,0c1,3.2,1.9,6.3,2.9,9.5
							c0.2,0.8,0.5,1.5,0.7,2.3v0.1c0.2,0.6,0.4,1.2,0.5,1.8c0,0.2,0.1,0.4,0.2,0.6c0.2,0.5,0.3,0.9,0.4,1.4
							C47.1,82.8,47.3,83.6,47.6,84.4L47.6,84.4z"/>
						<path class="st10" d="M86,78.4C81.3,84.2,75.4,89,68.5,92.1c-0.3,0.2-0.6,0.3-0.9,0.4c-0.1,0.1-0.2,0.1-0.3,0.1
							c0.1-2,0.2-3.6,0-3.9l0.2-9.4L67.9,60c0.2,0,0.3,0.1,0.4,0.1c2,0.6,3.7-0.6,5.5-1.5s3.7-1.5,5.7,0.6c0.8,0.8,1.8,2,2.1,2.6
							C83.5,66.2,84.9,72,86,78.4z"/>
						<path class="st8" d="M42,66.4L32.8,90l7.8,3.1l15.3,0.7l8.1-3.4l-9.3-23.9C54.7,66.5,47.5,71.2,42,66.4L42,66.4z"/>
						<g>
							<path class="st11" d="M52.4,81.1l-0.1,0.5l-0.2,1.3l-1.4,10.6l-0.4,3l0,0c-0.2,0-0.5,0-0.7,0c-0.4,0-0.8,0-1.3,0
								c-0.2,0-0.5,0-0.7,0c-0.3,0-0.7,0-1,0c-0.9,0-1.8-0.1-2.6-0.2c-1-0.1-2-0.2-3-0.3c-0.1,0-0.2,0-0.2,0c-0.3-0.1-0.7-0.1-1-0.2
								c-3.3-0.6-6.5-1.5-9.5-2.7C30.1,93,30,93,29.8,92.9c-0.1,0-0.1,0-0.2-0.1l1.6-14.5l0.1-0.7l2.5,0.4l0,0l3.5,0.6l7.5,1.2
								l1.5,0.2l3.1,0.5l1.5,0.2L52.4,81.1L52.4,81.1z"/>
							<path class="st12" d="M53,81.7l-1.6,11.9L51,96.5c-0.2,0-0.4,0-0.5,0s-0.1,0-0.2,0l0,0c-0.2,0-0.5,0-0.7,0
								c-0.4,0-0.8,0-1.3,0c-0.2,0-0.5,0-0.7,0c-0.3,0-0.7,0-1,0c-0.9,0-1.8-0.1-2.6-0.2c-1-0.1-2-0.2-3-0.3c-0.1,0-0.2,0-0.2,0
								c-0.3-0.1-0.7-0.1-1-0.2c-3.3-0.6-6.5-1.5-9.5-2.7l1.5-13.6l0.1-1.3l0,0l5.2,0.8l7.9,1.3l1.4,0.2l2.8,0.4l1.4,0.2l1.7,0.3
								C52.3,81.6,53,81.7,53,81.7z"/>
							<path class="st11" d="M52.3,82.9l-1.4,10.6l-0.4,3c-0.1,0-0.1,0-0.2,0l0,0c-0.2,0-0.5,0-0.7,0c-0.4,0-0.8,0-1.3,0
								c-0.2,0-0.5,0-0.7,0c-0.3,0-0.7,0-1,0c-0.9,0-1.8-0.1-2.6-0.2c-1-0.1-2-0.2-3-0.3c-0.1,0-0.2,0-0.2,0c-0.3-0.1-0.7-0.1-1-0.2
								c-3.3-0.6-6.5-1.5-9.5-2.7C30.1,93,30,93,29.8,92.9l1.5-13.5l0.5,0.1l4.9,0.8l9,1.5l1.2,0.2l1.9,0.3l1.3,0.2l2.1,0.3
								C52.1,82.9,52.3,82.9,52.3,82.9z"/>
						</g>
						<path class="st4" d="M49.5,96.5c-0.4,0-0.8,0-1.3,0c-0.2,0-0.5,0-0.7,0c-0.3,0-0.7,0-1,0c0.3-0.2,0.5-0.3,0.8-0.6
							c0.1-0.1,0.2-0.2,0.2-0.3c0.5-0.7,0.6-1.5,1-2.2c0.1-0.1,0.1-0.2,0.2-0.4c0.1,0.1,0.2,0.2,0.4,0.4c0.1,0.1,0.2,0.2,0.3,0.4
							C49.8,94.7,49.8,95.7,49.5,96.5z"/>
						<path class="st13" d="M29.2,84.1c0,0.6-0.3,4.1-0.7,7.3l0,0c0,0.3-0.1,0.6-0.1,0.9c-0.7-0.3-1.3-0.6-2-0.9
							c-5.8-2.9-10.9-7-15-11.9c2.9-9.8,6-20.5,9.9-21.6c2.1-0.6,3.4-0.3,4.3,0.3c0.5,0.3,0.9,0.7,1.2,1.1c0.4,0.5,0.6,0.8,0.9,0.8
							c0.7,4.4,1,8.9,0.9,13.3c0,1.7,0.1,3.4,0.2,5.1C28.9,80.3,29.1,82.2,29.2,84.1z"/>
					</g>
				</g>
				<path class="st8" d="M48.4,66.4c-0.6-0.6-1.5-1.8-1.7-3.4c3.2-1.9,0-6.3,0-6.3L40,49.4l-0.4,4.7c-0.1,12.8,6.7,13.1,8.8,12.9
					C48.4,67,48.4,66.4,48.4,66.4z"/>
				<path class="st8" d="M48.4,66.4c0.6-0.6,1.5-1.8,1.7-3.4c-2.7-1.5,0-6.3,0-6.3L57,50l0.2,4.1c0.1,12.8-6.7,13.1-8.8,12.9V66.4z"
					/>
				<path class="st13" d="M48.4,67.5c-0.7-0.6-1.7-1.8-1.9-3.4c2.2-3.4,0-6.3,0-6.3l-6.7-7.3l-1.2,4.7c-0.1,12.8,7.5,13.1,9.8,12.9
					C48.4,68.1,48.4,67.5,48.4,67.5z"/>
				<path class="st13" d="M48.4,67.5c0.7-0.6,1.7-1.8,1.9-3.4c-2.2-3.4,0-6.3,0-6.3l6.7-7.3l1.2,4.7c0.5,13.6-7.5,13.1-9.8,12.9
					C48.4,68.1,48.4,67.5,48.4,67.5z"/>
				<path class="st14" d="M43.7,64.2c0,1.3-1,2.3-2.3,2.3s-2.3-1-2.3-2.3s1-2.3,2.3-2.3S43.7,62.9,43.7,64.2z"/>
				<path class="st14" d="M57,64.2c0,1.3-1,2.3-2.3,2.3s-2.3-1-2.3-2.3s1-2.3,2.3-2.3S57,62.9,57,64.2z"/>
			</g>
		</g>
	</g>
</g>
</svg>
