<?xml version="1.0" encoding="utf-8"?>
<!-- Generator: Adobe Illustrator 26.1.0, SVG Export Plug-In . SVG Version: 6.00 Build 0)  -->
<svg version="1.1" id="Layer_1" xmlns="http://www.w3.org/2000/svg" xmlns:xlink="http://www.w3.org/1999/xlink" x="0px" y="0px"
	 viewBox="0 0 96.6 96.6" style="enable-background:new 0 0 96.6 96.6;" xml:space="preserve">
<style type="text/css">
	.st0{fill:#BEDDE5;}
	.st1{fill:#244356;}
	.st2{fill:#FFC28E;}
	.st3{fill:#E2A77D;}
	.st4{fill:#264859;}
	.st5{fill:#F0B784;}
	.st6{fill:#7F372A;}
	.st7{fill:#FFFFFF;}
	.st8{fill:#0B2530;}
	.st9{fill:#FF9F00;}
	.st10{fill:#F4D954;}
	.st11{fill:#2A4F5E;}
</style>
<g id="a">
</g>
<g id="b">
	<g id="c">
		<g id="d">
			<path class="st0" d="M96.6,48.3c0,1.5-0.1,2.9-0.2,4.4c-0.1,1-0.2,2.1-0.4,3.1c-0.2,1-0.4,2.1-0.6,3.1
				c-1.7,7.7-5.3,14.7-10.2,20.6c0,0,0,0,0,0c-2.3,2.7-4.9,5.2-7.8,7.4c-1.5,1.2-3.1,2.2-4.8,3.2c-4.4,2.6-9.3,4.5-14.6,5.5
				c-0.1,0-0.3,0.1-0.4,0.1c-0.3,0.1-0.7,0.1-1,0.2c-0.6,0.1-1.1,0.2-1.7,0.3c-0.3,0-0.5,0.1-0.8,0.1c-0.6,0.1-1.2,0.1-1.9,0.2
				c-1.2,0.1-2.4,0.1-3.6,0.2h-0.2c-1.6,0-3.2-0.1-4.7-0.2c-0.2,0-0.3,0-0.5-0.1c-6.2-0.7-12.1-2.5-17.4-5.4
				c-4.8-2.6-9.1-5.9-12.8-9.8c-0.1-0.1-0.2-0.2-0.3-0.3C4.8,72.2,0,60.8,0,48.3C0,21.6,21.6,0,48.3,0c23,0,42.2,16,47.1,37.5
				C96.1,41,96.6,44.6,96.6,48.3z"/>
			<g id="e">
				<path class="st1" d="M64.6,20.3c-1.3-1.5-3.6-4.3-4.2-6.1c-0.2-0.7-0.8-1.1-1.5-1.2c-2.1-0.4-6.8-1.5-9.2-2.9
					c-1-0.6-2.2-0.6-3.1-0.1c-2.7,1.4-8.2,2.6-10.2,3c-0.8,0.1-1.4,0.7-1.6,1.4c-0.4,1.7-2,4-4,5.9c-0.7,0.6-0.9,1.7-0.5,2.5
					c1.1,2,3.7,3.8,5.1,4.7c2.6-3.9,7.1-6.5,12.3-6.5s9.6,2.6,12.2,6.5c1.5-0.9,4.2-2.8,5.2-5C65.3,21.7,65.2,20.9,64.6,20.3z"/>
				<g>
					<g id="f">
						<path class="st2" d="M31.6,70c-2.8,7.6-4.4,13.5-5.3,17.5c-0.2,0.8-0.4,2-0.8,3.4c-4.8-2.6-9.1-5.9-12.8-9.8
							c1.3-6.4,3.2-8.2,4.8-13.7C22.3,68.2,27,69.1,31.6,70z"/>
						<path class="st2" d="M85.1,79.5c-2.3,2.7-4.9,5.2-7.8,7.4c-1.5,1.2-3.1,2.2-4.8,3.2c-0.2-1-0.4-1.9-0.6-2.6
							c-0.9-4-2.4-9.8-5.3-17.5c4.7-0.9,9.3-1.8,14-2.6c1,3.7,2.2,5.7,3.3,8.5c0,0,0,0.1,0,0.1c0.3,0.7,0.6,1.5,0.8,2.4
							c0,0.1,0,0.1,0,0.1C84.9,78.9,85,79.2,85.1,79.5z"/>
						<g>
							<path class="st3" d="M57.9,52.4c-0.3-0.2-0.6-0.5-0.7-0.9c-0.6-1.8,0-8.4-0.1-9.6l-18.5,0.5c0,1.5,0.5,6.8,0.5,7.9
								c0,1.2-0.9,2.3-2.2,3c0.1,0.5,0.4,1,0.5,1.6c0.1,0.6,0.3,1.1,0.5,1.7c0.4,1.1,1,2.1,1.9,3c2,2,4.7,2.7,7.3,2.7
								c3.5,0,6.6-1.4,9-4c0.4-1,0.8-2,1.1-3c0.1-0.5,2.2-2.1,2.2-2.1C59.3,53,58,52.4,57.9,52.4L57.9,52.4z"/>
							<path class="st1" d="M85.1,79.4C85.1,79.4,85.1,79.5,85.1,79.4c-2.3,2.8-5,5.2-7.8,7.4c-1.5,1.2-3.1,2.2-4.8,3.2
								c-4.4,2.6-9.3,4.5-14.6,5.5c-0.1,0-0.3,0.1-0.4,0.1c-0.3,0.1-0.7,0.1-1,0.2c-0.6,0.1-1.1,0.2-1.7,0.3c-0.3,0-0.5,0.1-0.8,0.1
								c-0.6,0.1-1.2,0.1-1.9,0.2c-1.2,0.1-2.4,0.1-3.6,0.2V60.1c0.4,0,1.3-0.5,2.4-1.2c0.1-0.1,0.2-0.1,0.3-0.2
								c2.8-1.9,6.9-5.2,7.3-6.1c0,0,0-0.1,0-0.1c0,0,1.3,0.2,3.2,0.7c4.2,1,11.3,2.9,13.8,4.4c2.5,1.4,6,10.9,8.5,18.2
								c0,0,0,0.1,0,0.1c0.3,0.8,0.6,1.7,0.8,2.4c0,0.1,0,0.1,0,0.1C85,78.9,85.1,79.1,85.1,79.4z"/>
							<path class="st4" d="M48.5,60.1v36.4h-0.2c-1.6,0-3.2-0.1-4.7-0.2c-0.2,0-0.3,0-0.5-0.1c-6.2-0.7-12.1-2.5-17.4-5.4
								c-4.8-2.6-9.1-5.9-12.8-9.8c-0.1-0.1-0.2-0.2-0.3-0.3c1.5-6.7,3.8-16.7,4.6-18.2c0.4-0.8,0.9-1.1,1.5-1.8
								c1.5-1.9,11.2-5.6,16-7c1.5-0.5,2.5-0.7,2.6-0.6l0,0c0.3,0.4,5.6,3.8,8.9,5.8c0,0,0,0,0,0C47.4,59.7,48.3,60.1,48.5,60.1
								L48.5,60.1z"/>
						</g>
					</g>
					<g>
						<g>
							<path class="st5" d="M37.5,43.1c0.1,0.7,0.4,1.3,0.9,1.8l4.3,4.2c-1-4.6-3.4-8.4-6-12.3C36.7,36.8,37.5,43.1,37.5,43.1z"/>
							<path class="st2" d="M58.5,38.7l0.8-6.4c0-2.5,0.1-5.1,0-7.7c-0.1-1.5-0.5-2.4-1.8-3.2c-1.6-1-2.9-0.5-4.3,0
								c-0.5,0.2-1,0.4-1.5,0.5c-1.5,0.4-3.2,0.6-4.7-0.1c-2.4-1.2-4.8-3-7.6-2.9c-0.5,0-1,0.1-1.5,0.4c-1,0.5-1.5,1.5-1.8,2.5
								c-0.7,2.5,0.3,4.6,0.1,7.1c0,1.1,0,2.3,0.1,3.5l0.5,4.3c2.7,4,5.1,7.7,6,12.3l1,1c0.5,0.5,1.1,0.7,1.8,0.7l2.2,0l2.2,0
								c0.7,0,1.3-0.3,1.8-0.7l1.5-1.5C53.4,44.4,54.8,40.2,58.5,38.7L58.5,38.7z"/>
							<path class="st5" d="M58.5,38.7c-3.7,1.5-5.1,5.7-5.2,9.8l4.1-4c0.3-0.3,0.5-0.7,0.6-1.2L58.5,38.7L58.5,38.7z"/>
							<path class="st2" d="M37.6,32.4c-0.2-1.1-0.3-2-0.4-2.3c-0.1-0.2-0.2-0.5-0.5-0.6c-0.1,0-0.3,0.1-0.4,0.1
								c-0.9-0.6-1.5,0.1-1.8,1c-0.3,1.1-0.2,1.8,0.2,2.7c0.5,1.1,0.9,2.3,1.4,3.5c0.1,0.3,0.6,2,1,2l2,0C38.6,38.9,38,35,37.6,32.4
								L37.6,32.4z"/>
							<path class="st2" d="M57.8,32.3c0.1-0.8,0.3-1.6,0.7-2.5c0.2-0.4,0.6-0.9,1.1-0.7c0.6,0.3,1,1,1.2,1.6c0.4,0.9,0,1.4-0.3,2.3
								c-0.2,0.6-1.9,5.7-2.2,5.7l-2,0c0.4-1.4,1.1-2.8,1.3-4.3C57.7,33.7,57.8,33,57.8,32.3L57.8,32.3z"/>
							<path class="st6" d="M37.1,34.5c-0.2-2-0.3-3.9-0.7-5.8c-0.5-2.6,0.9-5.2,2.3-7.4c0.2-0.4,0.5-0.7,0.9-0.9
								c0.6-0.2,1.2,0.2,1.6,0.5c1.7,1.1,5.4,2.5,5.4,2.5s3.9,0.1,5.7-0.3c1.3-0.3,3-1.3,4.3-0.5c1.1,0.6,1.3,2.6,1.8,3.8l0.1,9.7
								l1.2-3.9C60.7,28.8,61,21,61,21s-5.2-5.6-8.2-5c1.1-0.2,3,0.1,4.1-0.1c-4.1-1.3-7.4-2.6-10.8-2c-3.4,0.6-6.5,2.2-9.1,4.2
								c-1.2,0.9-2.9,3.3-2.9,3.3S34.1,29.9,37.1,34.5L37.1,34.5z"/>
						</g>
						<path class="st7" d="M43,42.5c1.3,0.4,3.2,0.7,5.5,0.6c1.8-0.1,3.2-0.5,4.3-0.9c-0.4,0.8-0.7,1.5-1.1,2.3
							c-0.6,0.4-2.3,1.3-4.4,1.1c-1.1-0.1-2-0.5-2.5-0.9C44.2,44,43.6,43.3,43,42.5z"/>
						<path class="st6" d="M38.8,32.6c0,0,3.3-1.9,6.2-1.1c0.7,1,0.1,2.4,0.1,2.4S44.6,31.4,38.8,32.6z"/>
						<path class="st6" d="M56.7,31.9c0,0-3.4-1.7-6.3-0.8c-0.7,1,0.1,2.4,0.1,2.4S50.8,31,56.7,31.9L56.7,31.9z"/>
						<path class="st3" d="M46,39l1.2,1.3c0.2,0.1,1.2,0.5,2.4,0.1c1.3-0.5,1.8-1.7,1.9-1.9l-1.2,3.4c-1.9-0.1-1.8-0.1-3.7-0.3
							L46,39L46,39z"/>
					</g>
				</g>
				<path class="st1" d="M59.3,16l-6.5-2.9l-8.7-0.8l-7.2,2.4l-4,8.4v0.9c0,0,16.5-7.1,29.7-0.3C61.5,19.6,59.3,16,59.3,16L59.3,16z
					"/>
				<g>
					<path class="st4" d="M61.8,21.7v2.1c0,0,0,0,0,0.1c-0.2,0.4-0.4,0.8-0.7,1.2c-7.9-5.1-18.4-5.1-26.2,0.1
						c-0.3-0.4-0.6-0.8-0.8-1.3c0,0,0,0,0-0.1v-2C42.5,16.8,53.3,16.8,61.8,21.7z"/>
					<path class="st8" d="M61.8,23.8C61.8,23.8,61.7,23.8,61.8,23.8c-0.2,0.5-0.4,0.9-0.7,1.2c-1.5,1.9-4,2.7-6.4,2.2
						c-4.5-1.1-9.1-1.1-13.5,0c-2.3,0.5-4.8-0.2-6.3-2.1c-0.3-0.4-0.6-0.8-0.8-1.3c0,0,0,0,0-0.1C42.9,19.9,52.9,19.9,61.8,23.8z"/>
				</g>
				<g>
					<path class="st9" d="M51.2,13.3h-1.8L48,12.6h-0.1l-1.4,0.7h-1.8c0,0-1.1,4.1,3.3,6.9C52.2,17.5,51.2,13.3,51.2,13.3z"/>
					<path class="st10" d="M50.3,14.1H49l-1-0.5h-0.1l-1,0.5h-1.4c0,0-0.8,3.1,2.4,5.2C51.2,17.2,50.3,14.1,50.3,14.1L50.3,14.1z"/>
				</g>
				<g>
					<path class="st9" d="M65.8,72.9h-2.9l-2.2-1.1l-0.1,0l-0.1,0l-2.2,1.1h-2.9c0,0-1.7,6.6,5.2,11C67.5,79.5,65.8,72.9,65.8,72.9z
						"/>
					<path class="st10" d="M64.5,74.2h-2.2l-1.7-0.9l-0.1,0l-0.1,0l-1.7,0.9h-2.2c0,0-1.3,5,3.9,8.3C65.8,79.1,64.5,74.2,64.5,74.2
						L64.5,74.2z"/>
				</g>
				<path class="st8" d="M54,96.2c-0.6,0.1-1.2,0.1-1.9,0.2c-1.2,0.1-2.4,0.1-3.6,0.2h-0.2c-1.6,0-3.2-0.1-4.7-0.2
					c-0.2,0-0.3,0-0.5-0.1l1.7-25.6l2.2-5.1c0,0-1.5-2-2-3.6c-0.2-0.5-0.2-1-0.1-1.3c0-0.1,0.1-0.2,0.1-0.2v0
					c0.3-0.5,0.8-1.1,1.2-1.6c0.6-0.6,1.1-1.1,1.1-1.1h0.2l1.1-0.1l1.3,0.1c0,0,0.7,0.3,1.4,0.9c0.6,0.5,1.2,1.2,1.1,2.1
					c0,0.1,0,0.2,0,0.3c-0.3,1.5-2.1,4.5-2.1,4.5l2.2,5.1L54,96.2L54,96.2z"/>
				<path class="st11" d="M47.5,57.7c0,0-7-3.1-8.7-6.3c-1,0.1-4.3,2.2-4.3,2.2s5.2,6.5,8.3,10.1c0.1,0.1,0.2,0.1,0.2,0
					c0.3-0.8,0.8-2,1.7-3.1C46,59.1,46.7,58.2,47.5,57.7z"/>
				<path class="st11" d="M49.8,57.8c0,0,5.9-3.8,7.5-7c0.9,0.1,4.1,2.1,4.5,2.3c0,0-5.1,6.8-8.2,10.6c-0.2,0.2-0.2,0.5-0.3,0.2
					c-0.3-0.9-0.5-2.5-1.3-3.6C50.8,58.9,50.6,58.3,49.8,57.8L49.8,57.8z"/>
				<rect x="30.3" y="77.8" class="st10" width="9.4" height="1.9"/>
			</g>
		</g>
	</g>
</g>
</svg>
